<svg xmlns="http://www.w3.org/2000/svg" viewBox="0 0 800 600" preserveAspectRatio="xMidYMid slice">
  <defs>
    <linearGradient id="leafGradient" x1="0" y1="0" x2="1" y2="1">
      <stop offset="0%" stop-color="#e1f6e9" />
      <stop offset="100%" stop-color="#b4e4c4" />
    </linearGradient>
    <linearGradient id="accentGradient" x1="0" y1="1" x2="1" y2="0">
      <stop offset="0%" stop-color="#94d1a5" />
      <stop offset="100%" stop-color="#69b68c" />
    </linearGradient>
  </defs>
  <rect width="800" height="600" fill="#f5fff9" />
  <g opacity="0.7">
    <path d="M120 520 C70 430 120 320 220 300 C320 280 360 420 260 500 Z" fill="url(#leafGradient)" />
    <path d="M640 520 C590 430 640 320 740 300 C840 280 880 420 780 500 Z" fill="url(#leafGradient)" />
  </g>
  <g opacity="0.45">
    <path d="M260 480 C220 410 260 330 330 320 C400 310 420 400 360 460 Z" fill="url(#accentGradient)" />
    <path d="M520 500 C470 420 520 320 610 310 C700 300 730 420 650 470 Z" fill="url(#accentGradient)" />
  </g>
  <g fill="none" stroke="#a8d9ba" stroke-width="4" stroke-linecap="round" stroke-opacity="0.5">
    <path d="M120 300 Q140 250 200 240" />
    <path d="M180 340 Q200 290 260 280" />
    <path d="M620 320 Q650 270 710 260" />
    <path d="M680 360 Q700 310 760 300" />
  </g>
</svg>
