<svg xmlns="http://www.w3.org/2000/svg" viewBox="0 0 320 320">
  <rect width="320" height="320" rx="28" fill="#f0f9f5" />
  <g transform="translate(70 70)">
    <rect x="60" y="170" width="90" height="50" rx="18" fill="#6f4a29" />
    <path d="M105 170 C120 130 140 110 150 80 C160 50 140 30 110 40 C80 50 70 70 60 90 C50 110 40 150 60 170 Z" fill="#2ba160" />
    <path d="M105 170 C90 130 70 110 60 80 C50 50 70 30 100 40 C130 50 140 70 150 90 C160 110 170 150 150 170 Z" fill="#38b26d" />
    <path d="M105 70 L105 170" stroke="#f0ffda" stroke-width="7" stroke-linecap="round" />
    <path d="M105 110 L130 120" stroke="#f0ffda" stroke-width="6" stroke-linecap="round" />
    <path d="M105 135 L80 145" stroke="#f0ffda" stroke-width="6" stroke-linecap="round" />
  </g>
</svg>
